<?xml version="1.0" encoding="UTF-8"?>
<svg xmlns="http://www.w3.org/2000/svg" version="1.1" viewBox="0 0 668.1 215">
  <defs>
    <style>
      .cls-1 {
        fill: #0f6bff;
      }

      .cls-2 {
        fill: #191d2d;
      }
    </style>
  </defs>
  <!-- Generator: Adobe Illustrator 28.6.0, SVG Export Plug-In . SVG Version: 1.2.0 Build 709)  -->
  <g>
    <g id="Layer_1">
      <g>
        <path class="cls-2" d="M59.2,149c-3.7,0-6.8-.5-9.3-1.5s-4.4-2.6-5.7-4.9c-1.3-2.3-2-5.3-2-9.2s0-2.7-.2-4.4-.6-3.3-1.3-4.9c-.7-1.6-1.8-2.9-3.2-4s-3.5-1.6-6-1.6h-7v29.3H-.4v-82.9h46.4c4,0,7.7.8,11.2,2.4,3.5,1.6,6.4,3.9,8.6,6.9s3.3,6.8,3.3,11.3-.7,7.2-2.1,10.2c-1.4,3-3.2,5.6-5.4,7.6-2.3,2.1-4.7,3.6-7.4,4.7v.6c2.3.7,4.3,1.7,6,3,1.7,1.3,3.1,2.8,4.1,4.5,1.1,1.7,1.8,3.5,2.4,5.4.5,1.9.8,3.7.8,5.4s0,2.6.1,4.2c0,1.6.3,3.1.7,4.5s1,2.7,1.8,3.9c.8,1.1,2,1.9,3.6,2.3v5c-2.2.9-4.6,1.5-7.1,1.8-2.6.3-5,.5-7.4.5h0ZM24.4,100h12.3c1.2,0,2.3-.4,3.3-1.2,1-.8,1.8-1.8,2.4-3.1.6-1.3.8-2.8.8-4.5,0-2.6-.6-4.5-1.8-5.7-1.2-1.2-2.7-1.8-4.3-1.8h-12.7v16.2h0Z"/>
        <path class="cls-2" d="M203.7,149c-5.3,0-10.3-.8-14.9-2.4-4.6-1.6-8.6-4-12.1-7.1-3.5-3.1-6.2-6.9-8.1-11.4-1.9-4.5-2.9-9.6-2.9-15.4v-12.8c0-5.5,1-10.4,3-14.9,2-4.4,4.8-8.2,8.3-11.4,3.6-3.2,7.6-5.6,12.1-7.4,4.6-1.7,9.3-2.6,14.3-2.6h3.4c4.9,0,9.5.7,13.7,2.2s7.9,3.7,11.1,6.6c3.1,2.9,5.6,6.6,7.3,11,1.7,4.4,2.6,9.5,2.6,15.4h-23.8c0-4.1-.4-7.4-1.3-9.7-.9-2.4-2.3-4.1-4.2-5.1s-4.3-1.5-7.3-1.5-3.5.3-5,.9c-1.5.6-2.8,1.4-3.8,2.5s-1.9,2.3-2.4,3.8c-.6,1.5-.9,3.1-.9,4.9v23.5c0,2.3.5,4.4,1.4,6.3s2.3,3.3,4.1,4.3c1.8,1,4,1.5,6.6,1.5s6.2-.5,8.2-1.4,3.5-2.6,4.4-5c.9-2.3,1.3-5.6,1.3-9.7h22.7c0,5.3-.9,10.2-2.6,14.5-1.7,4.4-4.2,8-7.3,11.1-3.1,3-6.8,5.3-11,6.9s-8.8,2.4-13.7,2.4h-3.4,0Z"/>
        <path class="cls-2" d="M251.5,147.8v-82.9h25.5v32.8l23.8-32.8h27.1l-25.3,33.2,26,49.7h-28.4l-14.4-30-8.8,10.4v19.6h-25.5Z"/>
        <path class="cls-2" d="M358.2,147.8v-82.9h44.3c4.7,0,8.9,1.1,12.8,3.3,3.8,2.2,6.9,5.1,9.1,8.8s3.4,7.9,3.4,12.6v2.7c0,4.7-1.1,9-3.5,12.9-2.3,3.9-5.4,7.1-9.2,9.6-3.8,2.4-8.1,3.6-12.8,3.6h-18.7v29.5h-25.4ZM383.6,99.8h11.1c1.5,0,2.8-.3,3.9-1,1-.6,1.9-1.6,2.5-2.8s.9-2.7.9-4.3-.6-3.8-1.8-5.4c-1.2-1.6-3-2.4-5.5-2.4h-11.1v16h0Z"/>
        <path class="cls-2" d="M469.3,149c-5,0-9.7-.9-14.1-2.8-4.4-1.9-8.2-4.5-11.5-7.8-3.3-3.3-5.9-7.1-7.8-11.6-1.9-4.4-2.8-9.1-2.8-14.1v-12.6c0-5,1-9.7,2.8-14.1,1.9-4.4,4.5-8.2,7.8-11.6,3.3-3.3,7.1-5.9,11.5-7.8,4.4-1.9,9.1-2.8,14.1-2.8h6.8c5,0,9.7,1,14.1,2.8,4.4,1.9,8.2,4.5,11.5,7.8,3.3,3.3,5.9,7.2,7.8,11.6,1.9,4.4,2.8,9.1,2.8,14.1v12.6c0,5-1,9.7-2.8,14.1-1.9,4.4-4.5,8.2-7.8,11.6-3.3,3.3-7.1,5.9-11.5,7.8-4.4,1.9-9.1,2.8-14.1,2.8h-6.8ZM472.7,130.1c1.9,0,3.5-.3,5-1,1.5-.6,2.8-1.5,3.9-2.6s2-2.4,2.6-3.8.9-3,.9-4.7v-23.2c0-1.7-.3-3.3-.9-4.7-.6-1.4-1.5-2.7-2.6-3.9-1.1-1.1-2.4-2-3.9-2.6-1.5-.6-3.2-.9-5-.9s-3.4.3-5,1-2.9,1.5-4,2.6-2,2.4-2.6,3.8c-.6,1.4-.9,3-.9,4.7v23.2c0,1.7.3,3.3.9,4.7.6,1.4,1.5,2.7,2.6,3.9,1.1,1.1,2.5,2,4,2.6,1.5.6,3.2.9,5,.9Z"/>
        <path class="cls-2" d="M556.2,149c-5,0-9.7-.9-14.1-2.8s-8.2-4.5-11.5-7.8c-3.3-3.3-5.9-7.1-7.8-11.6-1.9-4.4-2.8-9.1-2.8-14.1v-12.6c0-5,1-9.7,2.8-14.1,1.9-4.4,4.5-8.2,7.8-11.6,3.3-3.3,7.2-5.9,11.5-7.8,4.4-1.9,9.1-2.8,14.1-2.8h6.8c5,0,9.7,1,14.1,2.8,4.4,1.9,8.2,4.5,11.5,7.8,3.3,3.3,5.9,7.2,7.8,11.6,1.9,4.4,2.8,9.1,2.8,14.1v12.6c0,5-1,9.7-2.8,14.1-1.9,4.4-4.5,8.2-7.8,11.6-3.3,3.3-7.2,5.9-11.5,7.8-4.4,1.9-9.1,2.8-14.1,2.8h-6.8ZM559.5,130.1c1.8,0,3.5-.3,5-1,1.5-.6,2.8-1.5,3.9-2.6s2-2.4,2.6-3.8.9-3,.9-4.7v-23.2c0-1.7-.3-3.3-.9-4.7-.6-1.4-1.5-2.7-2.6-3.9-1.1-1.1-2.4-2-3.9-2.6-1.5-.6-3.2-.9-5-.9s-3.4.3-5,1-2.9,1.5-4,2.6-2,2.4-2.6,3.8c-.6,1.4-.9,3-.9,4.7v23.2c0,1.7.3,3.3.9,4.7.6,1.4,1.5,2.7,2.6,3.9,1.1,1.1,2.5,2,4,2.6,1.5.6,3.2.9,5,.9Z"/>
        <path class="cls-2" d="M609.8,147.8v-82.9h25.5v62.6h30.2l2.4,20.3h-58.2Z"/>
        <g>
          <path class="cls-1" d="M109.1,105.6c-1.2.5-1.7,1.9-1.2,3.1.5,1.2,1.9,1.7,3.1,1.2,1.2-.5,1.7-1.9,1.2-3.1-.5-1.2-1.9-1.7-3.1-1.2Z"/>
          <path class="cls-1" d="M109.2,101.8c1.5-.6,2.1-2.3,1.5-3.8s-2.3-2.1-3.8-1.5-2.1,2.3-1.5,3.8,2.3,2.1,3.8,1.5Z"/>
          <path class="cls-1" d="M117.1,104.4c1.2-.5,1.8-1.9,1.2-3.1s-1.9-1.8-3.1-1.2-1.8,1.9-1.2,3.1,1.9,1.8,3.1,1.2Z"/>
          <path class="cls-1" d="M155.6,85.8c-1.9-4.4-4.5-8.3-7.9-11.6-3.3-3.3-7.2-5.9-11.6-7.8-4.4-1.9-9.2-2.9-14.2-2.9h-6.8c-5,0-9.8,1-14.2,2.9-4.4,1.9-8.3,4.5-11.6,7.8-3.3,3.3-5.9,7.2-7.8,11.6-1.9,4.4-2.9,9.2-2.9,14.2v12.7c0,5,.9,9.8,2.9,14.2,1.9,4.4,4.5,8.3,7.8,11.6,3.3,3.3,7.2,5.9,11.6,7.9,4.4,1.9,9.2,2.9,14.2,2.9h6.8c5,0,9.8-1,14.2-2.9,4.4-1.9,8.3-4.5,11.6-7.9s5.9-7.2,7.9-11.6c1.9-4.4,2.9-9.2,2.9-14.2v-12.7c0-5-1-9.8-2.9-14.2ZM149,90.4c-5.9,4-9.9,8.6-11.9,13.7-.5,1.3-.3,2.8.4,4l10,15.1c2.1,3.3-1.1,7.4-4.8,6-4.6-4.1-10.3-6.2-17.1-7-1.2-.1-2.5.2-3.5,1-5.7,4.4-9.4,9.3-11.1,14.7-2.4,3.1-7.3,1.2-7.2-2.7l.8-18.2c0-1.4-.6-2.7-1.7-3.5-4.5-3.3-10-5-16.2-5.6-2.6-.3-4.4-3-3.3-5.5.4-1.1,1.3-1.9,2.6-2.3,5.7-2.3,11.6-3.9,17.7-4.9,1.1-.3,1.9-1.3,2-2.5,1.1-5.1,1.1-11.5.8-18.3.2-3.9,5.2-5.3,7.4-2,2.9,5.6,6.2,10.7,10.1,15.3.6,1,1.8,1.4,3,1.1,5.2-2.2,11.2-3.8,17.7-4.9,3.8-1,6.7,3.3,4.2,6.4h0Z"/>
          <path class="cls-1" d="M116.6,107.6c-.9.4-1.3,1.4-.9,2.3.4.9,1.4,1.3,2.3.9.9-.4,1.3-1.4.9-2.3-.4-.9-1.4-1.3-2.3-.9Z"/>
        </g>
      </g>
      <g>
        <path class="cls-2" d="M282,28.3V4.3h-8.2V-.4h22.5v4.7h-8.2v24h-6.1Z"/>
        <path class="cls-2" d="M322.2,28.3V-.4h6.1v11.6h10.4V-.4h6.1v28.7h-6.1v-12.2h-10.4v12.2h-6.1,0Z"/>
        <path class="cls-2" d="M373.1,28.3V-.4h20l-.7,4.7h-13.2v7.1h12.3v4.6h-12.3v7.7h13.4l.7,4.7h-20.1Z"/>
      </g>
      <g>
        <path class="cls-2" d="M179.7,214.5v-28.7h13.8c1.5,0,2.9.4,4.2,1.1s2.3,1.7,3,2.9c.8,1.2,1.1,2.6,1.1,4.2v.6c0,1.5-.4,3-1.2,4.3s-1.8,2.4-3.1,3.1c-1.3.8-2.7,1.2-4.3,1.2h-7.5v11.3h-6.1,0ZM185.9,198.6h6.1c.8,0,1.4-.2,2-.5s1-.8,1.4-1.4.5-1.3.5-2.1c0-1.1-.4-2.1-1.1-2.9-.7-.8-1.7-1.2-2.9-1.2h-6v8.1h0Z"/>
        <path class="cls-2" d="M248.4,214.8c-.9,0-1.8-.1-2.5-.5-.7-.3-1.3-.9-1.7-1.6-.4-.8-.6-1.9-.6-3.3s-.1-1.9-.3-2.7c-.2-.8-.5-1.4-.9-2-.4-.5-.9-.9-1.4-1.2-.5-.3-1.1-.4-1.8-.4h-5.2v11.4h-6v-28.7h14.4c1.4,0,2.6.3,3.8.9,1.2.6,2.1,1.4,2.9,2.5.7,1.1,1.1,2.3,1.1,3.8s-.2,2.3-.7,3.3-1.1,1.9-1.9,2.6c-.8.7-1.6,1.3-2.6,1.6v.2c.5.1,1,.4,1.5.7s1,.8,1.5,1.3.8,1.2,1.1,2.1c.3.8.4,1.8.4,2.8s0,1.5.1,2.1.2,1.1.3,1.6c.1.4.4.8.6,1.1.3.3.6.5,1.1.6v1.3c-.4.2-1,.3-1.6.4-.6.1-1.2.1-1.8.1h0ZM233.9,198.5h6.5c.7,0,1.3-.2,1.8-.6s.9-1,1.3-1.7c.3-.7.5-1.4.5-2.3s-.3-1.9-1-2.6c-.7-.6-1.5-.9-2.5-.9h-6.5v8.1h0Z"/>
        <path class="cls-2" d="M288.8,214.9c-1.6,0-3.2-.3-4.6-.8s-2.7-1.4-3.8-2.5c-1.1-1.1-2-2.5-2.6-4.1-.6-1.6-.9-3.6-.9-5.8v-3c0-2.2.3-4.2.9-5.8.6-1.6,1.5-3,2.6-4.1,1.1-1.1,2.4-1.9,3.8-2.5,1.4-.6,3-.8,4.6-.8h1.4c1.7,0,3.2.3,4.7.8,1.4.6,2.7,1.4,3.8,2.5,1.1,1.1,2,2.5,2.6,4.1.6,1.6.9,3.6.9,5.8v3c0,2.2-.3,4.2-.9,5.8-.6,1.6-1.5,3-2.6,4.1-1.1,1.1-2.4,1.9-3.8,2.5-1.4.6-3,.8-4.6.8h-1.4ZM289.5,210.3c.9,0,1.7-.1,2.5-.4.8-.3,1.4-.7,2-1.3.6-.6,1-1.3,1.3-2.2s.5-2.1.5-3.4v-5.6c0-1.3-.2-2.5-.5-3.4-.3-.9-.8-1.7-1.3-2.3-.6-.6-1.2-1-2-1.3-.8-.3-1.6-.4-2.4-.4s-1.7.1-2.5.4c-.8.3-1.4.7-2,1.3-.6.6-1,1.3-1.3,2.2s-.5,2.1-.5,3.4v5.6c0,1.3.2,2.5.5,3.4.3.9.8,1.7,1.3,2.3.6.6,1.2,1,2,1.3.8.3,1.6.4,2.4.4Z"/>
        <path class="cls-2" d="M335.6,214.9c-1.7,0-3.2-.3-4.5-.9-1.3-.6-2.3-1.5-3-2.7-.7-1.2-1.1-2.6-1.1-4.2v-2.1h5.6v1.8c0,1.2.3,2,1,2.6.6.6,1.4.9,2.4.9s1.3-.1,1.8-.4c.5-.3.9-.6,1.2-1.1.3-.5.4-1.1.4-1.9v-21h6v20.9c0,1.7-.4,3.2-1.2,4.4-.8,1.2-1.8,2.2-3.2,2.8-1.3.7-2.9,1-4.6,1h-.8,0Z"/>
        <path class="cls-2" d="M373.5,214.5v-28.7h20l-.7,4.7h-13.2v7.1h12.3v4.6h-12.3v7.7h13.4l.7,4.7h-20.1Z"/>
        <path class="cls-2" d="M431.1,214.9c-1.7,0-3.3-.2-4.8-.8-1.5-.5-2.8-1.3-3.9-2.3s-2-2.4-2.6-4.1c-.6-1.7-.9-3.7-.9-6.1v-3.1c0-2.3.3-4.3,1-5.9.6-1.7,1.5-3.1,2.6-4.1,1.1-1.1,2.4-1.9,3.9-2.4,1.5-.5,3-.8,4.6-.8h.8c1.6,0,3,.2,4.4.6s2.6,1.1,3.6,2.1c1,.9,1.9,2.1,2.5,3.6s.9,3.3.9,5.4h-5.7c0-1.8-.3-3.3-.8-4.3-.5-1-1.2-1.7-2.1-2.1-.9-.4-2-.6-3.2-.6s-1.7.1-2.4.4c-.7.3-1.4.7-1.9,1.2s-.9,1.3-1.2,2.3-.4,2.1-.4,3.4v5.6c0,1.8.2,3.2.8,4.3.5,1.1,1.2,1.9,2.1,2.3.9.5,1.9.7,3.1.7s2.4-.2,3.4-.6c1-.4,1.7-1.1,2.2-2.1.5-1,.8-2.4.8-4.2h5.5c0,2-.3,3.7-.9,5.2-.6,1.5-1.4,2.7-2.5,3.6s-2.2,1.7-3.6,2.1-2.8.7-4.4.7h-.8Z"/>
        <path class="cls-2" d="M475.9,214.5v-24h-8.2v-4.7h22.5v4.7h-8.2v24h-6.1Z"/>
      </g>
    </g>
  </g>
</svg>